<?xml version="1.0" standalone="no"?>
<!DOCTYPE svg PUBLIC "-//W3C//DTD SVG 20010904//EN"
 "http://www.w3.org/TR/2001/REC-SVG-20010904/DTD/svg10.dtd">
<svg version="1.0" xmlns="http://www.w3.org/2000/svg"
 width="800.000000pt" height="800.000000pt" viewBox="0 0 800.000000 800.000000"
 preserveAspectRatio="xMidYMid meet">

<g transform="translate(0.000000,800.000000) scale(0.100000,-0.100000)"
fill="#000000" stroke="none">
<path d="M3793 6148 c-24 -5 -43 -15 -43 -21 0 -7 7 -58 17 -114 12 -76 14
-106 6 -114 -8 -8 -44 17 -134 94 -115 100 -124 105 -158 100 -20 -3 -39 -9
-43 -12 -4 -4 9 -103 30 -221 l38 -215 35 3 c64 7 68 13 53 84 -7 35 -16 87
-20 116 -6 46 -4 52 12 52 11 0 71 -45 135 -99 114 -98 116 -99 157 -94 23 3
42 9 42 14 0 25 -73 425 -79 430 -3 3 -25 2 -48 -3z"/>
<path d="M4011 5963 c-13 -109 -24 -209 -25 -223 -1 -24 2 -25 109 -38 130
-15 198 -11 251 16 111 57 154 198 91 304 -42 72 -92 97 -245 119 -70 10 -134
19 -143 19 -13 0 -19 -35 -38 -197z m207 97 c102 -17 142 -57 142 -140 0 -101
-71 -158 -183 -146 -34 3 -65 10 -70 15 -11 11 9 221 24 259 10 26 5 25 87 12z"/>
<path d="M3105 5954 c-76 -36 -141 -67 -144 -69 -2 -3 31 -80 74 -172 42 -91
84 -181 91 -200 8 -18 16 -33 18 -33 3 0 310 141 313 144 5 5 -22 66 -28 66
-4 0 -51 -20 -105 -45 -53 -25 -103 -45 -110 -45 -17 0 -57 77 -48 91 3 6 44
28 90 50 46 21 84 42 84 48 0 5 -4 21 -10 35 l-9 25 -87 -39 c-47 -22 -93 -40
-101 -40 -16 0 -47 66 -40 84 3 7 48 32 101 57 53 24 96 50 96 57 0 21 -20 52
-33 51 -7 0 -75 -29 -152 -65z"/>
<path d="M2702 5710 c-67 -54 -135 -108 -150 -118 l-27 -20 24 -26 c14 -14 28
-26 31 -26 4 0 27 16 51 35 24 19 51 35 59 35 8 0 62 -61 120 -135 57 -74 109
-135 115 -135 5 1 25 14 43 29 l34 29 -106 133 c-64 81 -106 143 -106 156 0
13 3 23 8 23 4 0 25 15 47 34 39 33 39 33 22 60 -10 14 -23 26 -30 25 -6 0
-67 -45 -135 -99z"/>
<path d="M5218 5751 c-1 -5 -63 -78 -137 -162 l-134 -152 59 -54 c172 -155
247 -187 342 -147 83 34 146 125 145 209 0 74 -30 121 -140 224 -90 84 -126
105 -135 82z m107 -156 c56 -46 79 -95 71 -148 -18 -112 -142 -164 -232 -98
-52 38 -76 66 -72 85 5 24 159 196 175 196 8 0 34 -16 58 -35z"/>
<path d="M4662 5658 c-33 -42 -6 -108 44 -108 55 0 85 74 42 104 -27 19 -72
21 -86 4z"/>
<path d="M2403 5435 c-13 -19 -23 -38 -23 -42 0 -5 41 -37 90 -73 55 -39 89
-71 88 -80 -3 -12 -35 -17 -166 -25 l-163 -10 -25 -33 c-15 -18 -25 -34 -23
-36 2 -1 79 -59 171 -129 92 -70 172 -127 177 -127 6 0 22 16 38 36 l28 37
-22 14 c-65 43 -158 121 -161 135 -2 13 21 16 155 22 l158 6 28 32 c15 18 27
37 26 43 0 10 -324 258 -344 263 -5 1 -20 -14 -32 -33z"/>
<path d="M5506 5225 c-92 -62 -173 -118 -179 -124 -7 -7 17 -52 83 -151 51
-77 98 -140 104 -140 15 1 46 25 46 36 0 5 -27 50 -60 99 -33 50 -60 95 -60
102 0 14 61 53 84 53 9 0 38 -32 67 -77 28 -43 53 -79 57 -80 4 -2 18 6 31 16
l25 19 -52 79 c-29 44 -52 86 -52 94 0 16 49 49 74 49 8 0 43 -40 76 -90 33
-49 64 -90 68 -90 4 0 18 9 31 19 l23 18 -93 141 c-52 78 -96 141 -99 141 -3
0 -81 -51 -174 -114z"/>
<path d="M5800 4829 c-74 -67 -154 -140 -178 -161 l-43 -39 17 -52 c9 -29 19
-54 21 -57 5 -6 466 -39 474 -34 4 2 0 23 -9 47 l-16 44 -163 13 c-90 7 -166
16 -168 20 -10 16 9 37 121 135 124 107 122 102 91 177 l-12 29 -135 -122z"/>
<path d="M2125 4911 c-146 -68 -192 -288 -83 -400 118 -120 285 -95 370 56 59
105 48 218 -31 293 -71 70 -173 90 -256 51z m130 -92 c21 -6 54 -26 72 -44 29
-29 33 -40 33 -84 0 -67 -21 -106 -70 -131 -149 -76 -292 93 -189 224 32 40
88 53 154 35z"/>
<path d="M1946 4340 c-19 -17 -42 -50 -50 -73 -18 -49 -37 -269 -23 -278 4 -3
61 -9 125 -13 64 -5 158 -11 207 -15 50 -4 93 -5 96 -2 4 3 9 27 12 52 l6 46
-56 6 c-31 3 -60 10 -65 15 -6 6 -7 28 -3 51 6 38 12 44 69 76 63 35 63 36 69
87 4 29 5 54 3 56 -2 2 -21 -7 -43 -21 -21 -13 -52 -31 -70 -41 l-32 -16 -16
30 c-24 47 -70 70 -137 70 -50 0 -62 -4 -92 -30z m157 -101 c14 -17 17 -37 15
-88 l-3 -66 -68 -3 c-92 -4 -101 4 -93 83 5 48 11 65 33 84 33 28 88 24 116
-10z"/>
<path d="M5851 4332 l-183 -15 6 -56 c3 -31 8 -106 12 -168 4 -61 10 -116 14
-122 4 -7 19 -9 39 -5 l32 7 -7 106 c-4 58 -7 113 -8 121 -1 11 13 16 55 18
l56 3 7 -62 c3 -34 6 -79 6 -100 0 -38 1 -39 34 -39 19 0 37 3 39 8 2 4 0 49
-5 101 -5 51 -7 95 -4 98 3 3 25 8 50 10 33 4 47 2 51 -8 3 -8 8 -61 13 -119
l7 -105 29 -3 c16 -2 33 1 37 5 6 6 5 77 -2 176 l-12 167 -41 -1 c-23 -1 -124
-9 -225 -17z"/>
<path d="M5686 3883 c-3 -15 -10 -64 -16 -108 -6 -44 -18 -104 -27 -133 -9
-31 -12 -56 -7 -61 14 -13 82 -23 88 -13 3 5 8 46 11 92 8 117 12 130 44 130
14 0 95 -11 179 -24 84 -13 154 -20 156 -17 2 3 7 27 11 54 6 37 4 47 -7 47
-8 0 -84 11 -169 24 -275 43 -256 42 -263 9z"/>
<path d="M2102 3853 c-19 -4 -23 -9 -18 -26 18 -65 29 -168 19 -178 -13 -13
-101 -31 -113 -24 -4 2 -15 54 -25 115 l-18 110 -33 0 c-18 0 -35 -3 -37 -7
-4 -7 49 -333 55 -338 2 -2 100 14 218 35 l215 37 -3 44 c-2 24 -7 48 -11 52
-4 4 -40 2 -80 -4 -39 -7 -74 -10 -77 -7 -3 3 -12 49 -21 102 -17 101 -15 99
-71 89z"/>
<path d="M5696 3514 c-9 -9 -32 -20 -51 -25 -19 -6 -35 -15 -35 -21 0 -6 -12
-27 -26 -46 -35 -45 -64 -123 -64 -170 0 -104 71 -198 173 -227 52 -15 62 -15
110 -1 71 21 120 64 157 140 39 80 42 154 9 222 -21 44 -36 58 -132 120 -45
29 -117 33 -141 8z m143 -132 c47 -35 66 -70 65 -121 -2 -144 -189 -193 -271
-71 -49 70 -18 180 57 207 44 16 118 8 149 -15z"/>
<path d="M2374 3316 c-13 -21 -14 -29 -2 -52 19 -39 41 -50 75 -38 65 23 48
114 -22 114 -26 0 -39 -6 -51 -24z"/>
<path d="M5387 3053 l-27 -36 32 -28 c18 -16 36 -28 41 -29 18 -1 4 -45 -27
-83 -48 -60 -66 -100 -66 -150 0 -73 59 -142 132 -153 63 -11 117 24 208 135
44 53 79 101 79 106 0 12 -314 269 -332 272 -7 2 -24 -14 -40 -34z m192 -215
c30 -24 51 -50 51 -61 0 -32 -82 -107 -117 -107 -43 0 -83 40 -83 83 0 41 61
126 91 127 4 0 29 -19 58 -42z"/>
<path d="M2504 2979 c-25 -26 -29 -37 -27 -80 l2 -49 -45 0 c-87 0 -129 -77
-85 -159 19 -36 181 -229 194 -230 8 -1 306 262 321 284 7 9 -5 28 -40 66
-179 194 -186 199 -252 199 -30 0 -45 -7 -68 -31z m193 -126 c29 -31 53 -62
53 -69 0 -15 -69 -74 -87 -74 -7 0 -35 27 -63 61 -72 86 -67 138 15 139 23 0
40 -12 82 -57z m-147 -119 c54 -49 60 -77 24 -115 -15 -16 -36 -29 -45 -29
-29 0 -99 90 -99 127 0 62 61 70 120 17z"/>
<path d="M4995 2659 c-66 -49 -124 -94 -129 -99 -11 -11 12 -60 28 -60 6 0 52
29 101 65 49 36 91 65 94 65 20 -1 61 -55 61 -81 0 -9 -34 -40 -75 -70 -41
-29 -75 -56 -75 -60 0 -4 8 -17 19 -30 l19 -23 72 53 c82 59 91 64 106 53 15
-11 44 -55 44 -68 0 -7 -40 -42 -90 -79 l-90 -67 21 -29 c12 -17 25 -26 32
-22 55 33 252 189 252 198 0 22 -239 344 -255 344 -8 -1 -69 -41 -135 -90z"/>
<path d="M2896 2691 c-10 -11 -16 -24 -15 -30 2 -5 46 -37 97 -70 60 -39 92
-67 92 -79 0 -10 -13 -33 -29 -52 l-29 -35 -85 57 -86 58 -16 -22 c-8 -13 -15
-27 -15 -33 0 -5 34 -32 75 -59 42 -27 78 -53 81 -57 6 -11 -20 -61 -40 -79
-14 -11 -30 -3 -112 51 l-96 63 -19 -25 c-10 -13 -18 -27 -16 -31 2 -9 267
-188 276 -188 7 0 241 352 241 363 0 8 -266 187 -278 187 -5 0 -17 -9 -26 -19z"/>
<path d="M4753 2509 l-42 -19 19 -46 c11 -25 20 -52 20 -60 0 -12 -58 -44 -80
-44 -4 0 -34 18 -68 41 l-61 41 -46 -17 c-25 -10 -45 -20 -45 -24 0 -3 27 -23
60 -45 33 -21 60 -43 60 -49 0 -6 -9 -30 -21 -54 -33 -68 -6 -151 63 -193 54
-33 113 -26 243 27 63 25 115 50 115 54 0 5 -36 97 -80 205 -44 109 -80 199
-80 201 0 6 -15 1 -57 -18z m65 -277 c12 -32 22 -65 22 -74 0 -16 -95 -58
-131 -58 -34 0 -69 44 -69 88 0 43 15 62 70 85 68 29 83 24 108 -41z"/>
<path d="M3294 2351 c-33 -51 -87 -135 -121 -188 -35 -53 -63 -100 -63 -104 0
-7 62 -29 81 -29 3 0 41 56 84 125 90 144 109 155 119 73 3 -29 6 -97 6 -150
0 -107 2 -110 70 -123 l35 -6 80 125 c48 75 86 126 96 126 19 0 29 -72 29
-210 0 -99 4 -106 69 -116 l44 -7 -6 69 c-4 38 -9 140 -13 226 -4 97 -11 161
-18 166 -9 8 -94 32 -109 32 -3 0 -40 -54 -82 -120 -43 -66 -83 -120 -90 -120
-14 0 -25 93 -25 213 0 86 -2 89 -89 103 l-39 6 -58 -91z"/>
<path d="M4130 2330 c-25 -25 -25 -51 -2 -80 35 -43 112 -15 112 40 0 22 -45
60 -71 60 -11 0 -28 -9 -39 -20z"/>
</g>
</svg>
